<mxfile host="app.diagrams.net" agent="Mozilla/5.0 (Macintosh; Intel Mac OS X 10_15_7) AppleWebKit/537.36 (KHTML, like Gecko) Chrome/137.0.0.0 Safari/537.36" version="27.2.0">
  <diagram name="第 1 页" id="2U3ec2Lrw3CJrJBVDBDu">
    <mxGraphModel dx="72" dy="355" grid="1" gridSize="10" guides="1" tooltips="1" connect="1" arrows="1" fold="1" page="1" pageScale="1" pageWidth="255" pageHeight="165" math="0" shadow="0">
      <root>
        <mxCell id="0" />
        <mxCell id="1" parent="0" />
        <mxCell id="G3UJgIYXZJjlc9Zsjnps-1" value="" style="rounded=0;whiteSpace=wrap;html=1;fillColor=#F9FAFB;strokeColor=#000000;strokeWidth=1;fontFamily=Times New Roman;" parent="1" vertex="1">
          <mxGeometry x="561" y="7" width="170" height="140" as="geometry" />
        </mxCell>
        <mxCell id="G3UJgIYXZJjlc9Zsjnps-10" value="" style="triangle;whiteSpace=wrap;html=1;strokeWidth=1;fillColor=light-dark(#f9fafb, #1d293b);strokeColor=#000000;fontFamily=Times New Roman;" parent="1" vertex="1">
          <mxGeometry x="561" y="129" width="10" height="10" as="geometry" />
        </mxCell>
        <mxCell id="G3UJgIYXZJjlc9Zsjnps-12" value="" style="endArrow=classic;html=1;rounded=0;edgeStyle=orthogonalEdgeStyle;strokeWidth=1;endFill=1;fontFamily=Times New Roman;entryX=0;entryY=0.5;entryDx=0;entryDy=0;exitX=1;exitY=0.5;exitDx=0;exitDy=0;" parent="1" source="CMmrb7xc84JLPNAdee97-4" target="wC-l8S20R2a5h-04oCZZ-35" edge="1">
          <mxGeometry width="50" height="50" relative="1" as="geometry">
            <mxPoint x="640" y="120" as="sourcePoint" />
            <mxPoint x="592.8867770684178" y="79.80868923966983" as="targetPoint" />
            <Array as="points">
              <mxPoint x="653" y="122" />
              <mxPoint x="653" y="102" />
              <mxPoint x="580" y="102" />
              <mxPoint x="580" y="79" />
            </Array>
          </mxGeometry>
        </mxCell>
        <mxCell id="G3UJgIYXZJjlc9Zsjnps-13" value="D" style="text;html=1;align=center;verticalAlign=middle;whiteSpace=wrap;rounded=0;fontFamily=Times New Roman;" parent="1" vertex="1">
          <mxGeometry x="561" y="21" width="20" height="20" as="geometry" />
        </mxCell>
        <mxCell id="G3UJgIYXZJjlc9Zsjnps-14" value="" style="endArrow=none;html=1;rounded=0;strokeWidth=1;endFill=1;fontFamily=Times New Roman;startFill=0;entryX=0;entryY=0.5;entryDx=0;entryDy=0;" parent="1" target="wC-l8S20R2a5h-04oCZZ-36" edge="1">
          <mxGeometry width="50" height="50" relative="1" as="geometry">
            <mxPoint x="561" y="41" as="sourcePoint" />
            <mxPoint x="581" y="44" as="targetPoint" />
          </mxGeometry>
        </mxCell>
        <mxCell id="G3UJgIYXZJjlc9Zsjnps-20" value="Q" style="text;html=1;align=center;verticalAlign=middle;whiteSpace=wrap;rounded=0;fontFamily=Times New Roman;" parent="1" vertex="1">
          <mxGeometry x="731" y="21" width="20" height="20" as="geometry" />
        </mxCell>
        <mxCell id="G3UJgIYXZJjlc9Zsjnps-21" value="Data in" style="text;html=1;align=center;verticalAlign=middle;whiteSpace=wrap;rounded=0;fontFamily=Times New Roman;fontSize=11;" parent="1" vertex="1">
          <mxGeometry x="516" y="16" width="50" height="30" as="geometry" />
        </mxCell>
        <mxCell id="G3UJgIYXZJjlc9Zsjnps-22" value="" style="endArrow=classic;html=1;rounded=0;fontFamily=Times New Roman;" parent="1" edge="1">
          <mxGeometry width="50" height="50" relative="1" as="geometry">
            <mxPoint x="521" y="41" as="sourcePoint" />
            <mxPoint x="561" y="41" as="targetPoint" />
          </mxGeometry>
        </mxCell>
        <mxCell id="G3UJgIYXZJjlc9Zsjnps-23" value="" style="endArrow=classic;html=1;rounded=0;fontFamily=Times New Roman;" parent="1" edge="1">
          <mxGeometry width="50" height="50" relative="1" as="geometry">
            <mxPoint x="521" y="119.82999999999993" as="sourcePoint" />
            <mxPoint x="561" y="119.82999999999993" as="targetPoint" />
          </mxGeometry>
        </mxCell>
        <mxCell id="G3UJgIYXZJjlc9Zsjnps-24" value="Config. (FF/Latch)" style="text;html=1;align=center;verticalAlign=middle;whiteSpace=wrap;rounded=0;fontFamily=Times New Roman;fontSize=11;" parent="1" vertex="1">
          <mxGeometry x="511" y="87" width="50" height="30" as="geometry" />
        </mxCell>
        <mxCell id="G3UJgIYXZJjlc9Zsjnps-25" value="&lt;span style=&quot;background-color: transparent; color: light-dark(rgb(0, 0, 0), rgb(255, 255, 255));&quot;&gt;Data&lt;/span&gt;&lt;br&gt;&lt;div&gt;out&lt;/div&gt;" style="text;html=1;align=center;verticalAlign=middle;whiteSpace=wrap;rounded=0;fontFamily=Times New Roman;fontSize=11;" parent="1" vertex="1">
          <mxGeometry x="730" y="46" width="35" height="30" as="geometry" />
        </mxCell>
        <mxCell id="G3UJgIYXZJjlc9Zsjnps-26" value="" style="endArrow=classic;html=1;rounded=0;fontFamily=Times New Roman;exitX=0.5;exitY=0;exitDx=0;exitDy=0;" parent="1" edge="1">
          <mxGeometry width="50" height="50" relative="1" as="geometry">
            <mxPoint x="701" y="41.18" as="sourcePoint" />
            <mxPoint x="750" y="41" as="targetPoint" />
          </mxGeometry>
        </mxCell>
        <mxCell id="G3UJgIYXZJjlc9Zsjnps-27" value="" style="endArrow=none;html=1;rounded=0;exitX=0.001;exitY=0.933;exitDx=0;exitDy=0;exitPerimeter=0;strokeWidth=2;endFill=1;fontFamily=Times New Roman;strokeColor=#5D6E97;dashed=1;startFill=0;" parent="1" edge="1">
          <mxGeometry width="50" height="50" relative="1" as="geometry">
            <mxPoint x="561.17" y="119.62" as="sourcePoint" />
            <mxPoint x="600" y="120" as="targetPoint" />
          </mxGeometry>
        </mxCell>
        <mxCell id="G3UJgIYXZJjlc9Zsjnps-28" value="" style="endArrow=classic;html=1;rounded=0;fontFamily=Times New Roman;" parent="1" edge="1">
          <mxGeometry width="50" height="50" relative="1" as="geometry">
            <mxPoint x="521" y="134.82999999999993" as="sourcePoint" />
            <mxPoint x="561" y="134.82999999999993" as="targetPoint" />
          </mxGeometry>
        </mxCell>
        <mxCell id="G3UJgIYXZJjlc9Zsjnps-29" value="Clock in" style="text;html=1;align=center;verticalAlign=middle;whiteSpace=wrap;rounded=0;fontFamily=Times New Roman;fontSize=11;" parent="1" vertex="1">
          <mxGeometry x="510" y="125" width="60" height="30" as="geometry" />
        </mxCell>
        <mxCell id="wC-l8S20R2a5h-04oCZZ-8" style="edgeStyle=orthogonalEdgeStyle;rounded=0;orthogonalLoop=1;jettySize=auto;html=1;exitX=0.5;exitY=1;exitDx=0;exitDy=0;fontFamily=Times New Roman;" parent="1" source="G3UJgIYXZJjlc9Zsjnps-20" target="G3UJgIYXZJjlc9Zsjnps-20" edge="1">
          <mxGeometry relative="1" as="geometry" />
        </mxCell>
        <mxCell id="wC-l8S20R2a5h-04oCZZ-33" value="" style="group" parent="1" vertex="1" connectable="0">
          <mxGeometry x="600" y="31" width="50" height="63" as="geometry" />
        </mxCell>
        <mxCell id="wC-l8S20R2a5h-04oCZZ-34" value="&lt;b&gt;M&lt;/b&gt;-latch" style="rounded=0;whiteSpace=wrap;html=1;fillColor=#D6D9EC;strokeColor=light-dark(#000000, #9577a3);strokeWidth=1;fontFamily=Times New Roman;" parent="wC-l8S20R2a5h-04oCZZ-33" vertex="1">
          <mxGeometry width="50" height="63" as="geometry" />
        </mxCell>
        <mxCell id="wC-l8S20R2a5h-04oCZZ-35" value="" style="triangle;whiteSpace=wrap;html=1;strokeWidth=1;fillColor=#e1d5e7;strokeColor=#000000;fontFamily=Times New Roman;" parent="wC-l8S20R2a5h-04oCZZ-33" vertex="1">
          <mxGeometry y="43" width="10" height="10" as="geometry" />
        </mxCell>
        <mxCell id="wC-l8S20R2a5h-04oCZZ-36" value="D" style="text;html=1;align=center;verticalAlign=middle;whiteSpace=wrap;rounded=0;fontFamily=Times New Roman;" parent="wC-l8S20R2a5h-04oCZZ-33" vertex="1">
          <mxGeometry width="20" height="20" as="geometry" />
        </mxCell>
        <mxCell id="wC-l8S20R2a5h-04oCZZ-37" value="Q" style="text;html=1;align=center;verticalAlign=middle;whiteSpace=wrap;rounded=0;fontFamily=Times New Roman;" parent="wC-l8S20R2a5h-04oCZZ-33" vertex="1">
          <mxGeometry x="30" width="20" height="20" as="geometry" />
        </mxCell>
        <mxCell id="wC-l8S20R2a5h-04oCZZ-39" value="" style="group" parent="1" vertex="1" connectable="0">
          <mxGeometry x="671.5" y="31" width="50" height="63" as="geometry" />
        </mxCell>
        <mxCell id="wC-l8S20R2a5h-04oCZZ-40" value="&lt;b&gt;S&lt;/b&gt;-latch" style="rounded=0;whiteSpace=wrap;html=1;fillColor=#D6D9EC;strokeColor=light-dark(#000000, #9577a3);strokeWidth=1;fontFamily=Times New Roman;" parent="wC-l8S20R2a5h-04oCZZ-39" vertex="1">
          <mxGeometry width="50" height="63" as="geometry" />
        </mxCell>
        <mxCell id="wC-l8S20R2a5h-04oCZZ-41" value="" style="triangle;whiteSpace=wrap;html=1;strokeWidth=1;fillColor=#e1d5e7;strokeColor=#000000;fontFamily=Times New Roman;" parent="wC-l8S20R2a5h-04oCZZ-39" vertex="1">
          <mxGeometry y="43" width="10" height="10" as="geometry" />
        </mxCell>
        <mxCell id="wC-l8S20R2a5h-04oCZZ-42" value="D" style="text;html=1;align=center;verticalAlign=middle;whiteSpace=wrap;rounded=0;fontFamily=Times New Roman;" parent="wC-l8S20R2a5h-04oCZZ-39" vertex="1">
          <mxGeometry width="20" height="20" as="geometry" />
        </mxCell>
        <mxCell id="wC-l8S20R2a5h-04oCZZ-43" value="Q" style="text;html=1;align=center;verticalAlign=middle;whiteSpace=wrap;rounded=0;fontFamily=Times New Roman;" parent="wC-l8S20R2a5h-04oCZZ-39" vertex="1">
          <mxGeometry x="30" width="20" height="20" as="geometry" />
        </mxCell>
        <mxCell id="wC-l8S20R2a5h-04oCZZ-44" style="edgeStyle=orthogonalEdgeStyle;rounded=0;orthogonalLoop=1;jettySize=auto;html=1;entryX=0;entryY=0.5;entryDx=0;entryDy=0;endArrow=none;startFill=0;" parent="1" source="wC-l8S20R2a5h-04oCZZ-37" target="wC-l8S20R2a5h-04oCZZ-42" edge="1">
          <mxGeometry relative="1" as="geometry">
            <Array as="points">
              <mxPoint x="651" y="41" />
              <mxPoint x="651" y="41" />
            </Array>
          </mxGeometry>
        </mxCell>
        <mxCell id="wC-l8S20R2a5h-04oCZZ-53" value="&lt;font style=&quot;font-size: 10px;&quot; face=&quot;Times New Roman&quot;&gt;&lt;i&gt;Mode: FF / Latch&lt;/i&gt;&lt;/font&gt;" style="text;whiteSpace=wrap;html=1;" parent="1" vertex="1">
          <mxGeometry x="656" y="4" width="75" height="20" as="geometry" />
        </mxCell>
        <mxCell id="GTNCocy2A5qM65icqbY7-2" value="" style="endArrow=none;html=1;rounded=0;strokeWidth=1;endFill=1;fontFamily=Times New Roman;startFill=0;" parent="1" edge="1">
          <mxGeometry width="50" height="50" relative="1" as="geometry">
            <mxPoint x="571" y="133.85" as="sourcePoint" />
            <mxPoint x="580" y="134" as="targetPoint" />
          </mxGeometry>
        </mxCell>
        <mxCell id="GTNCocy2A5qM65icqbY7-12" value="" style="shape=or;whiteSpace=wrap;html=1;fillColor=#dae8fc;strokeColor=#000000;" parent="1" vertex="1">
          <mxGeometry x="585" y="108.5" width="30" height="28.5" as="geometry" />
        </mxCell>
        <mxCell id="GTNCocy2A5qM65icqbY7-15" value="" style="endArrow=classic;html=1;rounded=0;strokeWidth=1;endFill=1;fontFamily=Times New Roman;entryX=0;entryY=0.5;entryDx=0;entryDy=0;edgeStyle=orthogonalEdgeStyle;exitX=-0.012;exitY=0.899;exitDx=0;exitDy=0;exitPerimeter=0;" parent="1" target="wC-l8S20R2a5h-04oCZZ-41" edge="1" source="GTNCocy2A5qM65icqbY7-12">
          <mxGeometry width="50" height="50" relative="1" as="geometry">
            <mxPoint x="590" y="134" as="sourcePoint" />
            <mxPoint x="671.5" y="86.00000000000003" as="targetPoint" />
            <Array as="points">
              <mxPoint x="580" y="134" />
              <mxPoint x="580" y="140" />
              <mxPoint x="660" y="140" />
              <mxPoint x="660" y="79" />
            </Array>
          </mxGeometry>
        </mxCell>
        <mxCell id="CMmrb7xc84JLPNAdee97-2" value="" style="triangle;whiteSpace=wrap;html=1;" vertex="1" parent="1">
          <mxGeometry x="620" y="116.38" width="18" height="12.75" as="geometry" />
        </mxCell>
        <mxCell id="CMmrb7xc84JLPNAdee97-4" value="" style="ellipse;whiteSpace=wrap;html=1;aspect=fixed;" vertex="1" parent="1">
          <mxGeometry x="638" y="120" width="5" height="5" as="geometry" />
        </mxCell>
        <mxCell id="CMmrb7xc84JLPNAdee97-6" value="" style="endArrow=none;html=1;rounded=0;exitX=1;exitY=0.5;exitDx=0;exitDy=0;exitPerimeter=0;entryX=0;entryY=0.5;entryDx=0;entryDy=0;" edge="1" parent="1" source="GTNCocy2A5qM65icqbY7-12" target="CMmrb7xc84JLPNAdee97-2">
          <mxGeometry width="50" height="50" relative="1" as="geometry">
            <mxPoint x="610" y="110" as="sourcePoint" />
            <mxPoint x="660" y="60" as="targetPoint" />
          </mxGeometry>
        </mxCell>
        <mxCell id="CMmrb7xc84JLPNAdee97-7" value="" style="rounded=0;whiteSpace=wrap;html=1;fillColor=#F9FAFB;strokeColor=#000000;strokeWidth=1;fontFamily=Times New Roman;" vertex="1" parent="1">
          <mxGeometry x="821" y="4.5" width="170" height="140" as="geometry" />
        </mxCell>
        <mxCell id="CMmrb7xc84JLPNAdee97-8" value="" style="triangle;whiteSpace=wrap;html=1;strokeWidth=1;fillColor=light-dark(#f9fafb, #1d293b);strokeColor=#000000;fontFamily=Times New Roman;" vertex="1" parent="1">
          <mxGeometry x="821" y="126.5" width="10" height="10" as="geometry" />
        </mxCell>
        <mxCell id="CMmrb7xc84JLPNAdee97-9" value="" style="endArrow=classic;html=1;rounded=0;edgeStyle=orthogonalEdgeStyle;strokeWidth=1;endFill=1;fontFamily=Times New Roman;entryX=0;entryY=0.5;entryDx=0;entryDy=0;exitX=1;exitY=0.5;exitDx=0;exitDy=0;" edge="1" parent="1" source="CMmrb7xc84JLPNAdee97-39" target="CMmrb7xc84JLPNAdee97-25">
          <mxGeometry width="50" height="50" relative="1" as="geometry">
            <mxPoint x="900" y="117.5" as="sourcePoint" />
            <mxPoint x="852.8867770684178" y="77.30868923966983" as="targetPoint" />
            <Array as="points">
              <mxPoint x="913" y="119.5" />
              <mxPoint x="913" y="99.5" />
              <mxPoint x="840" y="99.5" />
              <mxPoint x="840" y="76.5" />
            </Array>
          </mxGeometry>
        </mxCell>
        <mxCell id="CMmrb7xc84JLPNAdee97-10" value="D" style="text;html=1;align=center;verticalAlign=middle;whiteSpace=wrap;rounded=0;fontFamily=Times New Roman;" vertex="1" parent="1">
          <mxGeometry x="821" y="18.5" width="20" height="20" as="geometry" />
        </mxCell>
        <mxCell id="CMmrb7xc84JLPNAdee97-11" value="" style="endArrow=none;html=1;rounded=0;strokeWidth=1;endFill=1;fontFamily=Times New Roman;startFill=0;entryX=0;entryY=0.5;entryDx=0;entryDy=0;" edge="1" parent="1" target="CMmrb7xc84JLPNAdee97-26">
          <mxGeometry width="50" height="50" relative="1" as="geometry">
            <mxPoint x="821" y="38.5" as="sourcePoint" />
            <mxPoint x="841" y="41.5" as="targetPoint" />
          </mxGeometry>
        </mxCell>
        <mxCell id="CMmrb7xc84JLPNAdee97-12" value="Q" style="text;html=1;align=center;verticalAlign=middle;whiteSpace=wrap;rounded=0;fontFamily=Times New Roman;" vertex="1" parent="1">
          <mxGeometry x="991" y="18.5" width="20" height="20" as="geometry" />
        </mxCell>
        <mxCell id="CMmrb7xc84JLPNAdee97-13" value="Data in" style="text;html=1;align=center;verticalAlign=middle;whiteSpace=wrap;rounded=0;fontFamily=Times New Roman;fontSize=11;" vertex="1" parent="1">
          <mxGeometry x="776" y="13.5" width="50" height="30" as="geometry" />
        </mxCell>
        <mxCell id="CMmrb7xc84JLPNAdee97-14" value="" style="endArrow=classic;html=1;rounded=0;fontFamily=Times New Roman;" edge="1" parent="1">
          <mxGeometry width="50" height="50" relative="1" as="geometry">
            <mxPoint x="781" y="38.5" as="sourcePoint" />
            <mxPoint x="821" y="38.5" as="targetPoint" />
          </mxGeometry>
        </mxCell>
        <mxCell id="CMmrb7xc84JLPNAdee97-15" value="" style="endArrow=classic;html=1;rounded=0;fontFamily=Times New Roman;" edge="1" parent="1">
          <mxGeometry width="50" height="50" relative="1" as="geometry">
            <mxPoint x="781" y="117.32999999999993" as="sourcePoint" />
            <mxPoint x="821" y="117.32999999999993" as="targetPoint" />
          </mxGeometry>
        </mxCell>
        <mxCell id="CMmrb7xc84JLPNAdee97-16" value="FF Mode" style="text;html=1;align=center;verticalAlign=middle;whiteSpace=wrap;rounded=0;fontFamily=Times New Roman;fontSize=11;" vertex="1" parent="1">
          <mxGeometry x="771" y="84.5" width="50" height="30" as="geometry" />
        </mxCell>
        <mxCell id="CMmrb7xc84JLPNAdee97-17" value="&lt;span style=&quot;background-color: transparent; color: light-dark(rgb(0, 0, 0), rgb(255, 255, 255));&quot;&gt;Data&lt;/span&gt;&lt;br&gt;&lt;div&gt;out&lt;/div&gt;" style="text;html=1;align=center;verticalAlign=middle;whiteSpace=wrap;rounded=0;fontFamily=Times New Roman;fontSize=11;" vertex="1" parent="1">
          <mxGeometry x="990" y="43.5" width="35" height="30" as="geometry" />
        </mxCell>
        <mxCell id="CMmrb7xc84JLPNAdee97-18" value="" style="endArrow=classic;html=1;rounded=0;fontFamily=Times New Roman;exitX=0.5;exitY=0;exitDx=0;exitDy=0;" edge="1" parent="1">
          <mxGeometry width="50" height="50" relative="1" as="geometry">
            <mxPoint x="961" y="38.68000000000001" as="sourcePoint" />
            <mxPoint x="1010" y="38.5" as="targetPoint" />
          </mxGeometry>
        </mxCell>
        <mxCell id="CMmrb7xc84JLPNAdee97-19" value="" style="endArrow=none;html=1;rounded=0;exitX=0.001;exitY=0.933;exitDx=0;exitDy=0;exitPerimeter=0;strokeWidth=2;endFill=1;fontFamily=Times New Roman;strokeColor=#5D6E97;dashed=1;startFill=0;" edge="1" parent="1">
          <mxGeometry width="50" height="50" relative="1" as="geometry">
            <mxPoint x="821.17" y="117.12" as="sourcePoint" />
            <mxPoint x="860" y="117.5" as="targetPoint" />
          </mxGeometry>
        </mxCell>
        <mxCell id="CMmrb7xc84JLPNAdee97-20" value="" style="endArrow=classic;html=1;rounded=0;fontFamily=Times New Roman;" edge="1" parent="1">
          <mxGeometry width="50" height="50" relative="1" as="geometry">
            <mxPoint x="781" y="132.32999999999993" as="sourcePoint" />
            <mxPoint x="821" y="132.32999999999993" as="targetPoint" />
          </mxGeometry>
        </mxCell>
        <mxCell id="CMmrb7xc84JLPNAdee97-21" value="Clock in" style="text;html=1;align=center;verticalAlign=middle;whiteSpace=wrap;rounded=0;fontFamily=Times New Roman;fontSize=11;" vertex="1" parent="1">
          <mxGeometry x="770" y="122.5" width="60" height="30" as="geometry" />
        </mxCell>
        <mxCell id="CMmrb7xc84JLPNAdee97-22" style="edgeStyle=orthogonalEdgeStyle;rounded=0;orthogonalLoop=1;jettySize=auto;html=1;exitX=0.5;exitY=1;exitDx=0;exitDy=0;fontFamily=Times New Roman;" edge="1" parent="1" source="CMmrb7xc84JLPNAdee97-12" target="CMmrb7xc84JLPNAdee97-12">
          <mxGeometry relative="1" as="geometry" />
        </mxCell>
        <mxCell id="CMmrb7xc84JLPNAdee97-23" value="" style="group" vertex="1" connectable="0" parent="1">
          <mxGeometry x="860" y="28.5" width="50" height="63" as="geometry" />
        </mxCell>
        <mxCell id="CMmrb7xc84JLPNAdee97-24" value="&lt;b&gt;M&lt;/b&gt;-latch" style="rounded=0;whiteSpace=wrap;html=1;fillColor=#D6D9EC;strokeColor=light-dark(#000000, #9577a3);strokeWidth=1;fontFamily=Times New Roman;" vertex="1" parent="CMmrb7xc84JLPNAdee97-23">
          <mxGeometry width="50" height="63" as="geometry" />
        </mxCell>
        <mxCell id="CMmrb7xc84JLPNAdee97-25" value="" style="triangle;whiteSpace=wrap;html=1;strokeWidth=1;fillColor=#e1d5e7;strokeColor=#000000;fontFamily=Times New Roman;" vertex="1" parent="CMmrb7xc84JLPNAdee97-23">
          <mxGeometry y="43" width="10" height="10" as="geometry" />
        </mxCell>
        <mxCell id="CMmrb7xc84JLPNAdee97-26" value="D" style="text;html=1;align=center;verticalAlign=middle;whiteSpace=wrap;rounded=0;fontFamily=Times New Roman;" vertex="1" parent="CMmrb7xc84JLPNAdee97-23">
          <mxGeometry width="20" height="20" as="geometry" />
        </mxCell>
        <mxCell id="CMmrb7xc84JLPNAdee97-27" value="Q" style="text;html=1;align=center;verticalAlign=middle;whiteSpace=wrap;rounded=0;fontFamily=Times New Roman;" vertex="1" parent="CMmrb7xc84JLPNAdee97-23">
          <mxGeometry x="30" width="20" height="20" as="geometry" />
        </mxCell>
        <mxCell id="CMmrb7xc84JLPNAdee97-28" value="" style="group" vertex="1" connectable="0" parent="1">
          <mxGeometry x="931.5" y="28.5" width="50" height="63" as="geometry" />
        </mxCell>
        <mxCell id="CMmrb7xc84JLPNAdee97-29" value="&lt;b&gt;S&lt;/b&gt;-latch" style="rounded=0;whiteSpace=wrap;html=1;fillColor=#D6D9EC;strokeColor=light-dark(#000000, #9577a3);strokeWidth=1;fontFamily=Times New Roman;" vertex="1" parent="CMmrb7xc84JLPNAdee97-28">
          <mxGeometry width="50" height="63" as="geometry" />
        </mxCell>
        <mxCell id="CMmrb7xc84JLPNAdee97-30" value="" style="triangle;whiteSpace=wrap;html=1;strokeWidth=1;fillColor=#e1d5e7;strokeColor=#000000;fontFamily=Times New Roman;" vertex="1" parent="CMmrb7xc84JLPNAdee97-28">
          <mxGeometry y="43" width="10" height="10" as="geometry" />
        </mxCell>
        <mxCell id="CMmrb7xc84JLPNAdee97-31" value="D" style="text;html=1;align=center;verticalAlign=middle;whiteSpace=wrap;rounded=0;fontFamily=Times New Roman;" vertex="1" parent="CMmrb7xc84JLPNAdee97-28">
          <mxGeometry width="20" height="20" as="geometry" />
        </mxCell>
        <mxCell id="CMmrb7xc84JLPNAdee97-32" value="Q" style="text;html=1;align=center;verticalAlign=middle;whiteSpace=wrap;rounded=0;fontFamily=Times New Roman;" vertex="1" parent="CMmrb7xc84JLPNAdee97-28">
          <mxGeometry x="30" width="20" height="20" as="geometry" />
        </mxCell>
        <mxCell id="CMmrb7xc84JLPNAdee97-33" style="edgeStyle=orthogonalEdgeStyle;rounded=0;orthogonalLoop=1;jettySize=auto;html=1;entryX=0;entryY=0.5;entryDx=0;entryDy=0;endArrow=none;startFill=0;" edge="1" parent="1" source="CMmrb7xc84JLPNAdee97-27" target="CMmrb7xc84JLPNAdee97-31">
          <mxGeometry relative="1" as="geometry">
            <Array as="points">
              <mxPoint x="911" y="38.5" />
              <mxPoint x="911" y="38.5" />
            </Array>
          </mxGeometry>
        </mxCell>
        <mxCell id="CMmrb7xc84JLPNAdee97-34" value="&lt;font style=&quot;font-size: 10px;&quot; face=&quot;Times New Roman&quot;&gt;&lt;i&gt;Mode: FF / Latch&lt;/i&gt;&lt;/font&gt;" style="text;whiteSpace=wrap;html=1;" vertex="1" parent="1">
          <mxGeometry x="916" y="1.5" width="75" height="20" as="geometry" />
        </mxCell>
        <mxCell id="CMmrb7xc84JLPNAdee97-35" value="" style="endArrow=none;html=1;rounded=0;strokeWidth=1;endFill=1;fontFamily=Times New Roman;startFill=0;" edge="1" parent="1">
          <mxGeometry width="50" height="50" relative="1" as="geometry">
            <mxPoint x="831" y="131.35000000000002" as="sourcePoint" />
            <mxPoint x="840" y="131.5" as="targetPoint" />
          </mxGeometry>
        </mxCell>
        <mxCell id="CMmrb7xc84JLPNAdee97-36" value="" style="shape=or;whiteSpace=wrap;html=1;fillColor=#dae8fc;strokeColor=#000000;" vertex="1" parent="1">
          <mxGeometry x="845" y="106" width="30" height="28.5" as="geometry" />
        </mxCell>
        <mxCell id="CMmrb7xc84JLPNAdee97-37" value="" style="endArrow=classic;html=1;rounded=0;strokeWidth=1;endFill=1;fontFamily=Times New Roman;entryX=0;entryY=0.5;entryDx=0;entryDy=0;edgeStyle=orthogonalEdgeStyle;exitX=-0.012;exitY=0.899;exitDx=0;exitDy=0;exitPerimeter=0;" edge="1" parent="1" source="CMmrb7xc84JLPNAdee97-36" target="CMmrb7xc84JLPNAdee97-30">
          <mxGeometry width="50" height="50" relative="1" as="geometry">
            <mxPoint x="850" y="131.5" as="sourcePoint" />
            <mxPoint x="931.5" y="83.50000000000003" as="targetPoint" />
            <Array as="points">
              <mxPoint x="840" y="131.5" />
              <mxPoint x="840" y="137.5" />
              <mxPoint x="920" y="137.5" />
              <mxPoint x="920" y="76.5" />
            </Array>
          </mxGeometry>
        </mxCell>
        <mxCell id="CMmrb7xc84JLPNAdee97-38" value="" style="triangle;whiteSpace=wrap;html=1;" vertex="1" parent="1">
          <mxGeometry x="880" y="113.88" width="18" height="12.75" as="geometry" />
        </mxCell>
        <mxCell id="CMmrb7xc84JLPNAdee97-39" value="" style="ellipse;whiteSpace=wrap;html=1;aspect=fixed;" vertex="1" parent="1">
          <mxGeometry x="898" y="117.5" width="5" height="5" as="geometry" />
        </mxCell>
        <mxCell id="CMmrb7xc84JLPNAdee97-40" value="" style="endArrow=none;html=1;rounded=0;exitX=1;exitY=0.5;exitDx=0;exitDy=0;exitPerimeter=0;entryX=0;entryY=0.5;entryDx=0;entryDy=0;" edge="1" parent="1" source="CMmrb7xc84JLPNAdee97-36" target="CMmrb7xc84JLPNAdee97-38">
          <mxGeometry width="50" height="50" relative="1" as="geometry">
            <mxPoint x="870" y="107.5" as="sourcePoint" />
            <mxPoint x="920" y="57.5" as="targetPoint" />
          </mxGeometry>
        </mxCell>
      </root>
    </mxGraphModel>
  </diagram>
</mxfile>
